<mxfile host="Electron" modified="2023-10-10T13:52:15.789Z" agent="Mozilla/5.0 (Windows NT 10.0; Win64; x64) AppleWebKit/537.36 (KHTML, like Gecko) draw.io/22.0.2 Chrome/114.0.5735.289 Electron/25.8.4 Safari/537.36" etag="oOi9o41_knbjTnOMpEu2" version="22.0.2" type="device">
  <diagram id="C5RBs43oDa-KdzZeNtuy" name="Page-1">
    <mxGraphModel dx="3217" dy="1477" grid="1" gridSize="10" guides="1" tooltips="1" connect="1" arrows="1" fold="1" page="1" pageScale="1" pageWidth="827" pageHeight="1169" math="0" shadow="0">
      <root>
        <mxCell id="WIyWlLk6GJQsqaUBKTNV-0" />
        <mxCell id="WIyWlLk6GJQsqaUBKTNV-1" parent="WIyWlLk6GJQsqaUBKTNV-0" />
        <mxCell id="9QMNmNmVJkwiS58PLL3N-5" style="edgeStyle=orthogonalEdgeStyle;rounded=0;orthogonalLoop=1;jettySize=auto;html=1;entryX=0;entryY=0.5;entryDx=0;entryDy=0;fontSize=12;startSize=20;endSize=8;startArrow=diamondThin;startFill=0;strokeWidth=1;endArrow=classic;endFill=1;sourcePerimeterSpacing=0;sketch=1;curveFitting=1;jiggle=2;labelBackgroundColor=none;strokeColor=#E07A5F;fontColor=default;fontFamily=Architects Daughter;fontSource=https%3A%2F%2Ffonts.googleapis.com%2Fcss%3Ffamily%3DArchitects%2BDaughter;" edge="1" parent="WIyWlLk6GJQsqaUBKTNV-1" source="s-cDR5zDLqDyJoDuvzJl-0" target="9QMNmNmVJkwiS58PLL3N-0">
          <mxGeometry relative="1" as="geometry" />
        </mxCell>
        <mxCell id="s-cDR5zDLqDyJoDuvzJl-0" value="Pet" style="swimlane;fontStyle=1;align=left;verticalAlign=top;childLayout=stackLayout;horizontal=1;startSize=26;horizontalStack=0;resizeParent=1;resizeParentMax=0;resizeLast=0;collapsible=1;marginBottom=0;whiteSpace=wrap;html=1;rounded=0;labelBackgroundColor=none;fontFamily=Architects Daughter;fontSize=20;sketch=1;curveFitting=1;jiggle=2;fillColor=#F2CC8F;strokeColor=#E07A5F;fontColor=#393C56;fontSource=https%3A%2F%2Ffonts.googleapis.com%2Fcss%3Ffamily%3DArchitects%2BDaughter;" parent="WIyWlLk6GJQsqaUBKTNV-1" vertex="1">
          <mxGeometry x="120" y="80" width="430" height="654" as="geometry" />
        </mxCell>
        <mxCell id="s-cDR5zDLqDyJoDuvzJl-1" value="- code: Integer" style="text;strokeColor=none;fillColor=none;align=left;verticalAlign=top;spacingLeft=4;spacingRight=4;overflow=hidden;rotatable=0;points=[[0,0.5],[1,0.5]];portConstraint=eastwest;whiteSpace=wrap;html=1;rounded=0;labelBackgroundColor=none;fontFamily=Architects Daughter;fontSize=20;sketch=1;curveFitting=1;jiggle=2;fontColor=#393C56;fontSource=https%3A%2F%2Ffonts.googleapis.com%2Fcss%3Ffamily%3DArchitects%2BDaughter;" parent="s-cDR5zDLqDyJoDuvzJl-0" vertex="1">
          <mxGeometry y="26" width="430" height="40" as="geometry" />
        </mxCell>
        <mxCell id="s-cDR5zDLqDyJoDuvzJl-4" value="- name: String" style="text;strokeColor=none;fillColor=none;align=left;verticalAlign=top;spacingLeft=4;spacingRight=4;overflow=hidden;rotatable=0;points=[[0,0.5],[1,0.5]];portConstraint=eastwest;whiteSpace=wrap;html=1;rounded=0;labelBackgroundColor=none;fontFamily=Architects Daughter;fontSize=20;sketch=1;curveFitting=1;jiggle=2;fontColor=#393C56;fontSource=https%3A%2F%2Ffonts.googleapis.com%2Fcss%3Ffamily%3DArchitects%2BDaughter;" parent="s-cDR5zDLqDyJoDuvzJl-0" vertex="1">
          <mxGeometry y="66" width="430" height="40" as="geometry" />
        </mxCell>
        <mxCell id="s-cDR5zDLqDyJoDuvzJl-5" value="- age: Byte" style="text;strokeColor=none;fillColor=none;align=left;verticalAlign=top;spacingLeft=4;spacingRight=4;overflow=hidden;rotatable=0;points=[[0,0.5],[1,0.5]];portConstraint=eastwest;whiteSpace=wrap;html=1;rounded=0;labelBackgroundColor=none;fontFamily=Architects Daughter;fontSize=20;sketch=1;curveFitting=1;jiggle=2;fontColor=#393C56;fontSource=https%3A%2F%2Ffonts.googleapis.com%2Fcss%3Ffamily%3DArchitects%2BDaughter;" parent="s-cDR5zDLqDyJoDuvzJl-0" vertex="1">
          <mxGeometry y="106" width="430" height="40" as="geometry" />
        </mxCell>
        <mxCell id="s-cDR5zDLqDyJoDuvzJl-6" value="- ownerId: Integer" style="text;strokeColor=none;fillColor=none;align=left;verticalAlign=top;spacingLeft=4;spacingRight=4;overflow=hidden;rotatable=0;points=[[0,0.5],[1,0.5]];portConstraint=eastwest;whiteSpace=wrap;html=1;rounded=0;labelBackgroundColor=none;fontFamily=Architects Daughter;fontSize=20;sketch=1;curveFitting=1;jiggle=2;fontColor=#393C56;fontSource=https%3A%2F%2Ffonts.googleapis.com%2Fcss%3Ffamily%3DArchitects%2BDaughter;" parent="s-cDR5zDLqDyJoDuvzJl-0" vertex="1">
          <mxGeometry y="146" width="430" height="40" as="geometry" />
        </mxCell>
        <mxCell id="s-cDR5zDLqDyJoDuvzJl-7" value="- appliedVaccines : Vaccine" style="text;strokeColor=none;fillColor=none;align=left;verticalAlign=top;spacingLeft=4;spacingRight=4;overflow=hidden;rotatable=0;points=[[0,0.5],[1,0.5]];portConstraint=eastwest;whiteSpace=wrap;html=1;rounded=0;labelBackgroundColor=none;fontFamily=Architects Daughter;fontSize=20;sketch=1;curveFitting=1;jiggle=2;fontColor=#393C56;fontSource=https%3A%2F%2Ffonts.googleapis.com%2Fcss%3Ffamily%3DArchitects%2BDaughter;" parent="s-cDR5zDLqDyJoDuvzJl-0" vertex="1">
          <mxGeometry y="186" width="430" height="40" as="geometry" />
        </mxCell>
        <mxCell id="s-cDR5zDLqDyJoDuvzJl-2" value="" style="line;strokeWidth=1;fillColor=none;align=left;verticalAlign=middle;spacingTop=-1;spacingLeft=3;spacingRight=3;rotatable=0;labelPosition=right;points=[];portConstraint=eastwest;rounded=0;labelBackgroundColor=none;fontSize=20;fontFamily=Architects Daughter;sketch=1;curveFitting=1;jiggle=2;strokeColor=#E07A5F;fontColor=#393C56;fontSource=https%3A%2F%2Ffonts.googleapis.com%2Fcss%3Ffamily%3DArchitects%2BDaughter;" parent="s-cDR5zDLqDyJoDuvzJl-0" vertex="1">
          <mxGeometry y="226" width="430" height="8" as="geometry" />
        </mxCell>
        <mxCell id="RIRtDlf__ccD125BJFYe-2" value="+ Pet(Integer, String, Byte, Integer, Vaccine)" style="text;strokeColor=none;fillColor=none;align=left;verticalAlign=top;spacingLeft=4;spacingRight=4;overflow=hidden;rotatable=0;points=[[0,0.5],[1,0.5]];portConstraint=eastwest;whiteSpace=wrap;html=1;rounded=0;labelBackgroundColor=none;fontFamily=Architects Daughter;fontSize=20;sketch=1;curveFitting=1;jiggle=2;fontColor=#393C56;fontSource=https%3A%2F%2Ffonts.googleapis.com%2Fcss%3Ffamily%3DArchitects%2BDaughter;" parent="s-cDR5zDLqDyJoDuvzJl-0" vertex="1">
          <mxGeometry y="234" width="430" height="60" as="geometry" />
        </mxCell>
        <mxCell id="RIRtDlf__ccD125BJFYe-3" value="+ getCode(): String" style="text;strokeColor=none;fillColor=none;align=left;verticalAlign=top;spacingLeft=4;spacingRight=4;overflow=hidden;rotatable=0;points=[[0,0.5],[1,0.5]];portConstraint=eastwest;whiteSpace=wrap;html=1;rounded=0;labelBackgroundColor=none;fontFamily=Architects Daughter;fontSize=20;sketch=1;curveFitting=1;jiggle=2;fontColor=#393C56;fontSource=https%3A%2F%2Ffonts.googleapis.com%2Fcss%3Ffamily%3DArchitects%2BDaughter;" parent="s-cDR5zDLqDyJoDuvzJl-0" vertex="1">
          <mxGeometry y="294" width="430" height="40" as="geometry" />
        </mxCell>
        <mxCell id="RIRtDlf__ccD125BJFYe-4" value="+ getName(): String" style="text;strokeColor=none;fillColor=none;align=left;verticalAlign=top;spacingLeft=4;spacingRight=4;overflow=hidden;rotatable=0;points=[[0,0.5],[1,0.5]];portConstraint=eastwest;whiteSpace=wrap;html=1;rounded=0;labelBackgroundColor=none;fontFamily=Architects Daughter;fontSize=20;sketch=1;curveFitting=1;jiggle=2;fontColor=#393C56;fontSource=https%3A%2F%2Ffonts.googleapis.com%2Fcss%3Ffamily%3DArchitects%2BDaughter;" parent="s-cDR5zDLqDyJoDuvzJl-0" vertex="1">
          <mxGeometry y="334" width="430" height="40" as="geometry" />
        </mxCell>
        <mxCell id="RIRtDlf__ccD125BJFYe-5" value="+ getAge(): Byte" style="text;strokeColor=none;fillColor=none;align=left;verticalAlign=top;spacingLeft=4;spacingRight=4;overflow=hidden;rotatable=0;points=[[0,0.5],[1,0.5]];portConstraint=eastwest;whiteSpace=wrap;html=1;rounded=0;labelBackgroundColor=none;fontFamily=Architects Daughter;fontSize=20;sketch=1;curveFitting=1;jiggle=2;fontColor=#393C56;fontSource=https%3A%2F%2Ffonts.googleapis.com%2Fcss%3Ffamily%3DArchitects%2BDaughter;" parent="s-cDR5zDLqDyJoDuvzJl-0" vertex="1">
          <mxGeometry y="374" width="430" height="40" as="geometry" />
        </mxCell>
        <mxCell id="RIRtDlf__ccD125BJFYe-6" value="+ getOwnerId(): String" style="text;strokeColor=none;fillColor=none;align=left;verticalAlign=top;spacingLeft=4;spacingRight=4;overflow=hidden;rotatable=0;points=[[0,0.5],[1,0.5]];portConstraint=eastwest;whiteSpace=wrap;html=1;rounded=0;labelBackgroundColor=none;fontFamily=Architects Daughter;fontSize=20;sketch=1;curveFitting=1;jiggle=2;fontColor=#393C56;fontSource=https%3A%2F%2Ffonts.googleapis.com%2Fcss%3Ffamily%3DArchitects%2BDaughter;" parent="s-cDR5zDLqDyJoDuvzJl-0" vertex="1">
          <mxGeometry y="414" width="430" height="40" as="geometry" />
        </mxCell>
        <mxCell id="RIRtDlf__ccD125BJFYe-8" value="+ setCode(Integer): void" style="text;strokeColor=none;fillColor=none;align=left;verticalAlign=top;spacingLeft=4;spacingRight=4;overflow=hidden;rotatable=0;points=[[0,0.5],[1,0.5]];portConstraint=eastwest;whiteSpace=wrap;html=1;rounded=0;labelBackgroundColor=none;fontFamily=Architects Daughter;fontSize=20;glass=0;shadow=0;noLabel=0;portConstraintRotation=0;snapToPoint=0;fixDash=0;metaEdit=0;backgroundOutline=0;sketch=1;curveFitting=1;jiggle=2;fontColor=#393C56;fontSource=https%3A%2F%2Ffonts.googleapis.com%2Fcss%3Ffamily%3DArchitects%2BDaughter;" parent="s-cDR5zDLqDyJoDuvzJl-0" vertex="1">
          <mxGeometry y="454" width="430" height="40" as="geometry" />
        </mxCell>
        <mxCell id="RIRtDlf__ccD125BJFYe-9" value="+ setName(String): void" style="text;strokeColor=none;fillColor=none;align=left;verticalAlign=top;spacingLeft=4;spacingRight=4;overflow=hidden;rotatable=0;points=[[0,0.5],[1,0.5]];portConstraint=eastwest;whiteSpace=wrap;html=1;rounded=0;labelBackgroundColor=none;fontFamily=Architects Daughter;fontSize=20;glass=0;shadow=0;noLabel=0;portConstraintRotation=0;snapToPoint=0;fixDash=0;metaEdit=0;backgroundOutline=0;sketch=1;curveFitting=1;jiggle=2;fontColor=#393C56;fontSource=https%3A%2F%2Ffonts.googleapis.com%2Fcss%3Ffamily%3DArchitects%2BDaughter;" parent="s-cDR5zDLqDyJoDuvzJl-0" vertex="1">
          <mxGeometry y="494" width="430" height="40" as="geometry" />
        </mxCell>
        <mxCell id="RIRtDlf__ccD125BJFYe-10" value="+ setAge(Byte): void" style="text;strokeColor=none;fillColor=none;align=left;verticalAlign=top;spacingLeft=4;spacingRight=4;overflow=hidden;rotatable=0;points=[[0,0.5],[1,0.5]];portConstraint=eastwest;whiteSpace=wrap;html=1;rounded=0;labelBackgroundColor=none;fontFamily=Architects Daughter;fontSize=20;glass=0;shadow=0;noLabel=0;portConstraintRotation=0;snapToPoint=0;fixDash=0;metaEdit=0;backgroundOutline=0;sketch=1;curveFitting=1;jiggle=2;fontColor=#393C56;fontSource=https%3A%2F%2Ffonts.googleapis.com%2Fcss%3Ffamily%3DArchitects%2BDaughter;" parent="s-cDR5zDLqDyJoDuvzJl-0" vertex="1">
          <mxGeometry y="534" width="430" height="40" as="geometry" />
        </mxCell>
        <mxCell id="RIRtDlf__ccD125BJFYe-11" value="+ setOwnerId(Integer): void" style="text;strokeColor=none;fillColor=none;align=left;verticalAlign=top;spacingLeft=4;spacingRight=4;overflow=hidden;rotatable=0;points=[[0,0.5],[1,0.5]];portConstraint=eastwest;whiteSpace=wrap;html=1;rounded=0;labelBackgroundColor=none;fontFamily=Architects Daughter;fontSize=20;glass=0;shadow=0;noLabel=0;portConstraintRotation=0;snapToPoint=0;fixDash=0;metaEdit=0;backgroundOutline=0;sketch=1;curveFitting=1;jiggle=2;fontColor=#393C56;fontSource=https%3A%2F%2Ffonts.googleapis.com%2Fcss%3Ffamily%3DArchitects%2BDaughter;" parent="s-cDR5zDLqDyJoDuvzJl-0" vertex="1">
          <mxGeometry y="574" width="430" height="40" as="geometry" />
        </mxCell>
        <mxCell id="s-cDR5zDLqDyJoDuvzJl-3" value="+ printPetInformation(): void" style="text;strokeColor=none;fillColor=none;align=left;verticalAlign=middle;spacingLeft=4;spacingRight=4;overflow=hidden;rotatable=0;points=[[0,0.5],[1,0.5]];portConstraint=eastwest;whiteSpace=wrap;html=1;rounded=0;labelBackgroundColor=none;fontFamily=Architects Daughter;fontSize=20;glass=0;shadow=0;noLabel=0;portConstraintRotation=0;snapToPoint=0;fixDash=0;metaEdit=0;backgroundOutline=0;fontStyle=5;sketch=1;curveFitting=1;jiggle=2;fontColor=#393C56;fontSource=https%3A%2F%2Ffonts.googleapis.com%2Fcss%3Ffamily%3DArchitects%2BDaughter;" parent="s-cDR5zDLqDyJoDuvzJl-0" vertex="1">
          <mxGeometry y="614" width="430" height="40" as="geometry" />
        </mxCell>
        <mxCell id="9QMNmNmVJkwiS58PLL3N-7" style="edgeStyle=orthogonalEdgeStyle;rounded=0;orthogonalLoop=1;jettySize=auto;html=1;entryX=1;entryY=0.5;entryDx=0;entryDy=0;fontSize=12;startSize=20;endSize=8;endArrow=classic;endFill=1;startArrow=diamondThin;startFill=0;sketch=1;curveFitting=1;jiggle=2;labelBackgroundColor=none;strokeColor=#E07A5F;fontColor=default;fontFamily=Architects Daughter;fontSource=https%3A%2F%2Ffonts.googleapis.com%2Fcss%3Ffamily%3DArchitects%2BDaughter;" edge="1" parent="WIyWlLk6GJQsqaUBKTNV-1" source="s-cDR5zDLqDyJoDuvzJl-9" target="9QMNmNmVJkwiS58PLL3N-0">
          <mxGeometry relative="1" as="geometry" />
        </mxCell>
        <mxCell id="s-cDR5zDLqDyJoDuvzJl-9" value="Vaccine" style="swimlane;fontStyle=1;align=left;verticalAlign=top;childLayout=stackLayout;horizontal=1;startSize=26;horizontalStack=0;resizeParent=1;resizeParentMax=0;resizeLast=0;collapsible=1;marginBottom=0;whiteSpace=wrap;html=1;rounded=0;labelBackgroundColor=none;fontSize=20;fontFamily=Architects Daughter;sketch=1;curveFitting=1;jiggle=2;fillColor=#F2CC8F;strokeColor=#E07A5F;fontColor=#393C56;fontSource=https%3A%2F%2Ffonts.googleapis.com%2Fcss%3Ffamily%3DArchitects%2BDaughter;" parent="WIyWlLk6GJQsqaUBKTNV-1" vertex="1">
          <mxGeometry x="1160" y="90" width="330" height="480" as="geometry" />
        </mxCell>
        <mxCell id="s-cDR5zDLqDyJoDuvzJl-10" value="- code: Integer" style="text;strokeColor=none;fillColor=none;align=left;verticalAlign=top;spacingLeft=4;spacingRight=4;overflow=hidden;rotatable=0;points=[[0,0.5],[1,0.5]];portConstraint=eastwest;whiteSpace=wrap;html=1;rounded=0;labelBackgroundColor=none;fontFamily=Architects Daughter;fontSize=20;sketch=1;curveFitting=1;jiggle=2;fontColor=#393C56;fontSource=https%3A%2F%2Ffonts.googleapis.com%2Fcss%3Ffamily%3DArchitects%2BDaughter;" parent="s-cDR5zDLqDyJoDuvzJl-9" vertex="1">
          <mxGeometry y="26" width="330" height="40" as="geometry" />
        </mxCell>
        <mxCell id="s-cDR5zDLqDyJoDuvzJl-11" value="- name: String" style="text;strokeColor=none;fillColor=none;align=left;verticalAlign=top;spacingLeft=4;spacingRight=4;overflow=hidden;rotatable=0;points=[[0,0.5],[1,0.5]];portConstraint=eastwest;whiteSpace=wrap;html=1;rounded=0;labelBackgroundColor=none;fontFamily=Architects Daughter;fontSize=20;sketch=1;curveFitting=1;jiggle=2;fontColor=#393C56;fontSource=https%3A%2F%2Ffonts.googleapis.com%2Fcss%3Ffamily%3DArchitects%2BDaughter;" parent="s-cDR5zDLqDyJoDuvzJl-9" vertex="1">
          <mxGeometry y="66" width="330" height="40" as="geometry" />
        </mxCell>
        <mxCell id="s-cDR5zDLqDyJoDuvzJl-12" value="- price: Double" style="text;strokeColor=none;fillColor=none;align=left;verticalAlign=top;spacingLeft=4;spacingRight=4;overflow=hidden;rotatable=0;points=[[0,0.5],[1,0.5]];portConstraint=eastwest;whiteSpace=wrap;html=1;rounded=0;labelBackgroundColor=none;fontFamily=Architects Daughter;fontSize=20;sketch=1;curveFitting=1;jiggle=2;fontColor=#393C56;fontSource=https%3A%2F%2Ffonts.googleapis.com%2Fcss%3Ffamily%3DArchitects%2BDaughter;" parent="s-cDR5zDLqDyJoDuvzJl-9" vertex="1">
          <mxGeometry y="106" width="330" height="26" as="geometry" />
        </mxCell>
        <mxCell id="s-cDR5zDLqDyJoDuvzJl-19" value="- Quantity: Integer" style="text;strokeColor=none;fillColor=none;align=left;verticalAlign=top;spacingLeft=4;spacingRight=4;overflow=hidden;rotatable=0;points=[[0,0.5],[1,0.5]];portConstraint=eastwest;whiteSpace=wrap;html=1;rounded=0;labelBackgroundColor=none;fontFamily=Architects Daughter;fontSize=20;sketch=1;curveFitting=1;jiggle=2;fontColor=#393C56;fontSource=https%3A%2F%2Ffonts.googleapis.com%2Fcss%3Ffamily%3DArchitects%2BDaughter;" parent="s-cDR5zDLqDyJoDuvzJl-9" vertex="1">
          <mxGeometry y="132" width="330" height="40" as="geometry" />
        </mxCell>
        <mxCell id="s-cDR5zDLqDyJoDuvzJl-15" value="" style="line;strokeWidth=1;fillColor=none;align=left;verticalAlign=middle;spacingTop=-1;spacingLeft=3;spacingRight=3;rotatable=0;labelPosition=right;points=[];portConstraint=eastwest;rounded=0;labelBackgroundColor=none;fontSize=20;fontFamily=Architects Daughter;sketch=1;curveFitting=1;jiggle=2;strokeColor=#E07A5F;fontColor=#393C56;fontSource=https%3A%2F%2Ffonts.googleapis.com%2Fcss%3Ffamily%3DArchitects%2BDaughter;" parent="s-cDR5zDLqDyJoDuvzJl-9" vertex="1">
          <mxGeometry y="172" width="330" height="8" as="geometry" />
        </mxCell>
        <mxCell id="RIRtDlf__ccD125BJFYe-13" value="+ Vaccine(Integer, String, Integer, Integer)" style="text;strokeColor=none;fillColor=none;align=left;verticalAlign=top;spacingLeft=4;spacingRight=4;overflow=hidden;rotatable=0;points=[[0,0.5],[1,0.5]];portConstraint=eastwest;whiteSpace=wrap;html=1;rounded=0;labelBackgroundColor=none;fontFamily=Architects Daughter;fontSize=20;sketch=1;curveFitting=1;jiggle=2;fontColor=#393C56;fontSource=https%3A%2F%2Ffonts.googleapis.com%2Fcss%3Ffamily%3DArchitects%2BDaughter;" parent="s-cDR5zDLqDyJoDuvzJl-9" vertex="1">
          <mxGeometry y="180" width="330" height="60" as="geometry" />
        </mxCell>
        <mxCell id="RIRtDlf__ccD125BJFYe-14" value="+ getCode(): Integer" style="text;strokeColor=none;fillColor=none;align=left;verticalAlign=top;spacingLeft=4;spacingRight=4;overflow=hidden;rotatable=0;points=[[0,0.5],[1,0.5]];portConstraint=eastwest;whiteSpace=wrap;html=1;rounded=0;labelBackgroundColor=none;fontFamily=Architects Daughter;fontSize=20;sketch=1;curveFitting=1;jiggle=2;fontColor=#393C56;fontSource=https%3A%2F%2Ffonts.googleapis.com%2Fcss%3Ffamily%3DArchitects%2BDaughter;" parent="s-cDR5zDLqDyJoDuvzJl-9" vertex="1">
          <mxGeometry y="240" width="330" height="40" as="geometry" />
        </mxCell>
        <mxCell id="RIRtDlf__ccD125BJFYe-15" value="+ getName(): String" style="text;strokeColor=none;fillColor=none;align=left;verticalAlign=top;spacingLeft=4;spacingRight=4;overflow=hidden;rotatable=0;points=[[0,0.5],[1,0.5]];portConstraint=eastwest;whiteSpace=wrap;html=1;rounded=0;labelBackgroundColor=none;fontFamily=Architects Daughter;fontSize=20;sketch=1;curveFitting=1;jiggle=2;fontColor=#393C56;fontSource=https%3A%2F%2Ffonts.googleapis.com%2Fcss%3Ffamily%3DArchitects%2BDaughter;" parent="s-cDR5zDLqDyJoDuvzJl-9" vertex="1">
          <mxGeometry y="280" width="330" height="40" as="geometry" />
        </mxCell>
        <mxCell id="RIRtDlf__ccD125BJFYe-16" value="+ getPrice(): Integer" style="text;strokeColor=none;fillColor=none;align=left;verticalAlign=top;spacingLeft=4;spacingRight=4;overflow=hidden;rotatable=0;points=[[0,0.5],[1,0.5]];portConstraint=eastwest;whiteSpace=wrap;html=1;rounded=0;labelBackgroundColor=none;fontFamily=Architects Daughter;fontSize=20;sketch=1;curveFitting=1;jiggle=2;fontColor=#393C56;fontSource=https%3A%2F%2Ffonts.googleapis.com%2Fcss%3Ffamily%3DArchitects%2BDaughter;" parent="s-cDR5zDLqDyJoDuvzJl-9" vertex="1">
          <mxGeometry y="320" width="330" height="40" as="geometry" />
        </mxCell>
        <mxCell id="RIRtDlf__ccD125BJFYe-17" value="+ getQuantity(): Integer" style="text;strokeColor=none;fillColor=none;align=left;verticalAlign=top;spacingLeft=4;spacingRight=4;overflow=hidden;rotatable=0;points=[[0,0.5],[1,0.5]];portConstraint=eastwest;whiteSpace=wrap;html=1;rounded=0;labelBackgroundColor=none;fontFamily=Architects Daughter;fontSize=20;sketch=1;curveFitting=1;jiggle=2;fontColor=#393C56;fontSource=https%3A%2F%2Ffonts.googleapis.com%2Fcss%3Ffamily%3DArchitects%2BDaughter;" parent="s-cDR5zDLqDyJoDuvzJl-9" vertex="1">
          <mxGeometry y="360" width="330" height="40" as="geometry" />
        </mxCell>
        <mxCell id="SYzShqRqQN84-Aiarfp--0" value="+ setName(String): Void" style="text;strokeColor=none;fillColor=none;align=left;verticalAlign=top;spacingLeft=4;spacingRight=4;overflow=hidden;rotatable=0;points=[[0,0.5],[1,0.5]];portConstraint=eastwest;whiteSpace=wrap;html=1;rounded=0;labelBackgroundColor=none;fontFamily=Architects Daughter;fontSize=20;sketch=1;curveFitting=1;jiggle=2;fontColor=#393C56;fontSource=https%3A%2F%2Ffonts.googleapis.com%2Fcss%3Ffamily%3DArchitects%2BDaughter;" parent="s-cDR5zDLqDyJoDuvzJl-9" vertex="1">
          <mxGeometry y="400" width="330" height="40" as="geometry" />
        </mxCell>
        <mxCell id="SYzShqRqQN84-Aiarfp--1" value="+ setPrice(Integer): void" style="text;strokeColor=none;fillColor=none;align=left;verticalAlign=top;spacingLeft=4;spacingRight=4;overflow=hidden;rotatable=0;points=[[0,0.5],[1,0.5]];portConstraint=eastwest;whiteSpace=wrap;html=1;rounded=0;labelBackgroundColor=none;fontFamily=Architects Daughter;fontSize=20;sketch=1;curveFitting=1;jiggle=2;fontColor=#393C56;fontSource=https%3A%2F%2Ffonts.googleapis.com%2Fcss%3Ffamily%3DArchitects%2BDaughter;" parent="s-cDR5zDLqDyJoDuvzJl-9" vertex="1">
          <mxGeometry y="440" width="330" height="40" as="geometry" />
        </mxCell>
        <mxCell id="ijpxQK83YY_1SpdZP8aC-0" value="PetProtectionAssociation" style="swimlane;fontStyle=1;align=left;verticalAlign=top;childLayout=stackLayout;horizontal=1;startSize=26;horizontalStack=0;resizeParent=1;resizeParentMax=0;resizeLast=0;collapsible=1;marginBottom=0;whiteSpace=wrap;html=1;hachureGap=4;fontFamily=Architects Daughter;fontSize=20;labelBackgroundColor=none;sketch=1;curveFitting=1;jiggle=2;fillColor=#F2CC8F;strokeColor=#E07A5F;fontColor=#393C56;fontSource=https%3A%2F%2Ffonts.googleapis.com%2Fcss%3Ffamily%3DArchitects%2BDaughter;" parent="WIyWlLk6GJQsqaUBKTNV-1" vertex="1">
          <mxGeometry x="650" y="770" width="480" height="514" as="geometry" />
        </mxCell>
        <mxCell id="ijpxQK83YY_1SpdZP8aC-1" value="- parvovirusVaccines: Integer" style="text;strokeColor=none;fillColor=none;align=left;verticalAlign=top;spacingLeft=4;spacingRight=4;overflow=hidden;rotatable=0;points=[[0,0.5],[1,0.5]];portConstraint=eastwest;whiteSpace=wrap;html=1;fontSize=20;fontFamily=Architects Daughter;labelBackgroundColor=none;sketch=1;curveFitting=1;jiggle=2;fontColor=#393C56;fontSource=https%3A%2F%2Ffonts.googleapis.com%2Fcss%3Ffamily%3DArchitects%2BDaughter;" parent="ijpxQK83YY_1SpdZP8aC-0" vertex="1">
          <mxGeometry y="26" width="480" height="40" as="geometry" />
        </mxCell>
        <mxCell id="ijpxQK83YY_1SpdZP8aC-25" value="- hepatitisVaccines: Integer" style="text;strokeColor=none;fillColor=none;align=left;verticalAlign=top;spacingLeft=4;spacingRight=4;overflow=hidden;rotatable=0;points=[[0,0.5],[1,0.5]];portConstraint=eastwest;whiteSpace=wrap;html=1;fontSize=20;fontFamily=Architects Daughter;labelBackgroundColor=none;sketch=1;curveFitting=1;jiggle=2;fontColor=#393C56;fontSource=https%3A%2F%2Ffonts.googleapis.com%2Fcss%3Ffamily%3DArchitects%2BDaughter;" parent="ijpxQK83YY_1SpdZP8aC-0" vertex="1">
          <mxGeometry y="66" width="480" height="40" as="geometry" />
        </mxCell>
        <mxCell id="ijpxQK83YY_1SpdZP8aC-26" value="- rabiaVaccines: Integer" style="text;strokeColor=none;fillColor=none;align=left;verticalAlign=top;spacingLeft=4;spacingRight=4;overflow=hidden;rotatable=0;points=[[0,0.5],[1,0.5]];portConstraint=eastwest;whiteSpace=wrap;html=1;fontSize=20;fontFamily=Architects Daughter;labelBackgroundColor=none;sketch=1;curveFitting=1;jiggle=2;fontColor=#393C56;fontSource=https%3A%2F%2Ffonts.googleapis.com%2Fcss%3Ffamily%3DArchitects%2BDaughter;" parent="ijpxQK83YY_1SpdZP8aC-0" vertex="1">
          <mxGeometry y="106" width="480" height="40" as="geometry" />
        </mxCell>
        <mxCell id="ijpxQK83YY_1SpdZP8aC-27" value="- trivalenteVaccines: Integer" style="text;strokeColor=none;fillColor=none;align=left;verticalAlign=top;spacingLeft=4;spacingRight=4;overflow=hidden;rotatable=0;points=[[0,0.5],[1,0.5]];portConstraint=eastwest;whiteSpace=wrap;html=1;fontSize=20;fontFamily=Architects Daughter;labelBackgroundColor=none;sketch=1;curveFitting=1;jiggle=2;fontColor=#393C56;fontSource=https%3A%2F%2Ffonts.googleapis.com%2Fcss%3Ffamily%3DArchitects%2BDaughter;" parent="ijpxQK83YY_1SpdZP8aC-0" vertex="1">
          <mxGeometry y="146" width="480" height="40" as="geometry" />
        </mxCell>
        <mxCell id="ijpxQK83YY_1SpdZP8aC-28" value="- totalDonation: Double" style="text;strokeColor=none;fillColor=none;align=left;verticalAlign=top;spacingLeft=4;spacingRight=4;overflow=hidden;rotatable=0;points=[[0,0.5],[1,0.5]];portConstraint=eastwest;whiteSpace=wrap;html=1;fontSize=20;fontFamily=Architects Daughter;labelBackgroundColor=none;sketch=1;curveFitting=1;jiggle=2;fontColor=#393C56;fontSource=https%3A%2F%2Ffonts.googleapis.com%2Fcss%3Ffamily%3DArchitects%2BDaughter;" parent="ijpxQK83YY_1SpdZP8aC-0" vertex="1">
          <mxGeometry y="186" width="480" height="40" as="geometry" />
        </mxCell>
        <mxCell id="ijpxQK83YY_1SpdZP8aC-2" value="" style="line;strokeWidth=1;fillColor=none;align=left;verticalAlign=middle;spacingTop=-1;spacingLeft=3;spacingRight=3;rotatable=0;labelPosition=right;points=[];portConstraint=eastwest;hachureGap=4;fontFamily=Architects Daughter;fontSize=20;labelBackgroundColor=none;sketch=1;curveFitting=1;jiggle=2;strokeColor=#E07A5F;fontColor=#393C56;fontSource=https%3A%2F%2Ffonts.googleapis.com%2Fcss%3Ffamily%3DArchitects%2BDaughter;" parent="ijpxQK83YY_1SpdZP8aC-0" vertex="1">
          <mxGeometry y="226" width="480" height="8" as="geometry" />
        </mxCell>
        <mxCell id="9QMNmNmVJkwiS58PLL3N-0" value="+ getParvovirusVaccines(): Integer" style="text;strokeColor=none;fillColor=none;align=left;verticalAlign=top;spacingLeft=4;spacingRight=4;overflow=hidden;rotatable=0;points=[[0,0.5],[1,0.5]];portConstraint=eastwest;whiteSpace=wrap;html=1;fontSize=20;fontFamily=Architects Daughter;labelBackgroundColor=none;sketch=1;curveFitting=1;jiggle=2;fontColor=#393C56;fontSource=https%3A%2F%2Ffonts.googleapis.com%2Fcss%3Ffamily%3DArchitects%2BDaughter;" vertex="1" parent="ijpxQK83YY_1SpdZP8aC-0">
          <mxGeometry y="234" width="480" height="40" as="geometry" />
        </mxCell>
        <mxCell id="9QMNmNmVJkwiS58PLL3N-1" value="+ getHepatititsVaccines(): Integer" style="text;strokeColor=none;fillColor=none;align=left;verticalAlign=top;spacingLeft=4;spacingRight=4;overflow=hidden;rotatable=0;points=[[0,0.5],[1,0.5]];portConstraint=eastwest;whiteSpace=wrap;html=1;fontSize=20;fontFamily=Architects Daughter;labelBackgroundColor=none;sketch=1;curveFitting=1;jiggle=2;fontColor=#393C56;fontSource=https%3A%2F%2Ffonts.googleapis.com%2Fcss%3Ffamily%3DArchitects%2BDaughter;" vertex="1" parent="ijpxQK83YY_1SpdZP8aC-0">
          <mxGeometry y="274" width="480" height="40" as="geometry" />
        </mxCell>
        <mxCell id="9QMNmNmVJkwiS58PLL3N-2" value="+ getRabiaVaccines(): Integer" style="text;strokeColor=none;fillColor=none;align=left;verticalAlign=top;spacingLeft=4;spacingRight=4;overflow=hidden;rotatable=0;points=[[0,0.5],[1,0.5]];portConstraint=eastwest;whiteSpace=wrap;html=1;fontSize=20;fontFamily=Architects Daughter;labelBackgroundColor=none;sketch=1;curveFitting=1;jiggle=2;fontColor=#393C56;fontSource=https%3A%2F%2Ffonts.googleapis.com%2Fcss%3Ffamily%3DArchitects%2BDaughter;" vertex="1" parent="ijpxQK83YY_1SpdZP8aC-0">
          <mxGeometry y="314" width="480" height="40" as="geometry" />
        </mxCell>
        <mxCell id="9QMNmNmVJkwiS58PLL3N-3" value="+ getTrivalenteVaccines(): Integer" style="text;strokeColor=none;fillColor=none;align=left;verticalAlign=top;spacingLeft=4;spacingRight=4;overflow=hidden;rotatable=0;points=[[0,0.5],[1,0.5]];portConstraint=eastwest;whiteSpace=wrap;html=1;fontSize=20;fontFamily=Architects Daughter;labelBackgroundColor=none;sketch=1;curveFitting=1;jiggle=2;fontColor=#393C56;fontSource=https%3A%2F%2Ffonts.googleapis.com%2Fcss%3Ffamily%3DArchitects%2BDaughter;" vertex="1" parent="ijpxQK83YY_1SpdZP8aC-0">
          <mxGeometry y="354" width="480" height="40" as="geometry" />
        </mxCell>
        <mxCell id="ijpxQK83YY_1SpdZP8aC-29" value="+ PetProtectionAssociation()" style="text;strokeColor=none;fillColor=none;align=left;verticalAlign=top;spacingLeft=4;spacingRight=4;overflow=hidden;rotatable=0;points=[[0,0.5],[1,0.5]];portConstraint=eastwest;whiteSpace=wrap;html=1;fontSize=20;fontFamily=Architects Daughter;labelBackgroundColor=none;sketch=1;curveFitting=1;jiggle=2;fontColor=#393C56;fontSource=https%3A%2F%2Ffonts.googleapis.com%2Fcss%3Ffamily%3DArchitects%2BDaughter;" parent="ijpxQK83YY_1SpdZP8aC-0" vertex="1">
          <mxGeometry y="394" width="480" height="40" as="geometry" />
        </mxCell>
        <mxCell id="ijpxQK83YY_1SpdZP8aC-30" value="+ vaccinate(pet: Pet, vaccine: Vaccine): void" style="text;strokeColor=none;fillColor=none;align=left;verticalAlign=top;spacingLeft=4;spacingRight=4;overflow=hidden;rotatable=0;points=[[0,0.5],[1,0.5]];portConstraint=eastwest;whiteSpace=wrap;html=1;fontSize=20;fontFamily=Architects Daughter;labelBackgroundColor=none;sketch=1;curveFitting=1;jiggle=2;fontColor=#393C56;fontSource=https%3A%2F%2Ffonts.googleapis.com%2Fcss%3Ffamily%3DArchitects%2BDaughter;" parent="ijpxQK83YY_1SpdZP8aC-0" vertex="1">
          <mxGeometry y="434" width="480" height="40" as="geometry" />
        </mxCell>
        <mxCell id="ijpxQK83YY_1SpdZP8aC-3" value="+ main(String): void" style="text;strokeColor=none;fillColor=none;align=left;verticalAlign=top;spacingLeft=4;spacingRight=4;overflow=hidden;rotatable=0;points=[[0,0.5],[1,0.5]];portConstraint=eastwest;whiteSpace=wrap;html=1;fontSize=20;fontFamily=Architects Daughter;labelBackgroundColor=none;sketch=1;curveFitting=1;jiggle=2;fontColor=#393C56;fontSource=https%3A%2F%2Ffonts.googleapis.com%2Fcss%3Ffamily%3DArchitects%2BDaughter;" parent="ijpxQK83YY_1SpdZP8aC-0" vertex="1">
          <mxGeometry y="474" width="480" height="40" as="geometry" />
        </mxCell>
        <mxCell id="ijpxQK83YY_1SpdZP8aC-24" value="Cumple la función del &quot;toString()&quot;" style="rounded=1;whiteSpace=wrap;html=1;hachureGap=4;fontFamily=Architects Daughter;fontSize=20;dashed=1;fillColor=none;align=left;labelBackgroundColor=none;sketch=1;curveFitting=1;jiggle=2;strokeColor=#E07A5F;fontColor=#393C56;fontSource=https%3A%2F%2Ffonts.googleapis.com%2Fcss%3Ffamily%3DArchitects%2BDaughter;" parent="WIyWlLk6GJQsqaUBKTNV-1" vertex="1">
          <mxGeometry x="-260" y="668.5" width="200" height="80" as="geometry" />
        </mxCell>
        <mxCell id="ijpxQK83YY_1SpdZP8aC-23" style="edgeStyle=none;curved=1;rounded=0;hachureGap=4;orthogonalLoop=1;jettySize=auto;html=1;fontFamily=Architects Daughter;fontSize=20;startSize=8;endSize=8;entryX=1;entryY=0.5;entryDx=0;entryDy=0;align=left;labelBackgroundColor=none;fontColor=default;sketch=1;curveFitting=1;jiggle=2;strokeColor=#E07A5F;fontSource=https%3A%2F%2Ffonts.googleapis.com%2Fcss%3Ffamily%3DArchitects%2BDaughter;" parent="WIyWlLk6GJQsqaUBKTNV-1" source="s-cDR5zDLqDyJoDuvzJl-3" target="ijpxQK83YY_1SpdZP8aC-24" edge="1">
          <mxGeometry relative="1" as="geometry">
            <mxPoint x="30" y="789" as="targetPoint" />
          </mxGeometry>
        </mxCell>
        <mxCell id="9QMNmNmVJkwiS58PLL3N-8" style="edgeStyle=none;curved=1;rounded=0;orthogonalLoop=1;jettySize=auto;html=1;exitX=0;exitY=0.5;exitDx=0;exitDy=0;entryX=1;entryY=0.5;entryDx=0;entryDy=0;fontSize=12;startSize=20;endSize=8;startArrow=diamondThin;startFill=0;sketch=1;curveFitting=1;jiggle=2;labelBackgroundColor=none;strokeColor=#E07A5F;fontColor=default;fontFamily=Architects Daughter;fontSource=https%3A%2F%2Ffonts.googleapis.com%2Fcss%3Ffamily%3DArchitects%2BDaughter;" edge="1" parent="WIyWlLk6GJQsqaUBKTNV-1" source="s-cDR5zDLqDyJoDuvzJl-19" target="s-cDR5zDLqDyJoDuvzJl-6">
          <mxGeometry relative="1" as="geometry" />
        </mxCell>
      </root>
    </mxGraphModel>
  </diagram>
</mxfile>
